# xmcd CD database file
#
# Track frame offsets:
#	150
#	19280
#	39617
#	59237
#	75487
#	94710
#	111130
#	128465
#	144802
#	157022
#
# Disc length: 2347 seconds
#
# Revision: 0
# Processed by: cddbd v1.5.1PL2 Copyright (c) Steve Scherf et al.
# Submitted via: CDex 1.51
#
DISCID=7d09290a
DTITLE=伊藤銀次 - BABY BLUE
DYEAR=1982
DGENRE=Rock
TTITLE0=BABY BLUE
TTITLE1=雨のステラ/STELLA
TTITLE2=TAPPIN' and and CLAPPIN'
TTITLE3=プラネット・ガール/PLANET GIRL
TTITLE4=センチメンタルにやってくれ/SAME OLD SONG
TTITLE5=CONGRATULATIONS
TTITLE6=ONE WAY TICKET TOTHE MOON
TTITLE7=そして誰のせいでもない/BECAUSE OF YOU
TTITLE8=JUST A LITTLE LOVE
TTITLE9=SHADE OF SUMMER
EXTD=YEAR: 1982
EXTT0=
EXTT1=
EXTT2=
EXTT3=
EXTT4=
EXTT5=
EXTT6=
EXTT7=
EXTT8=
EXTT9=
PLAYORDER=
